<?xml version="1.0" standalone="no"?>
<!DOCTYPE svg PUBLIC "-//W3C//DTD SVG 20010904//EN"
 "http://www.w3.org/TR/2001/REC-SVG-20010904/DTD/svg10.dtd">
<svg version="1.0" xmlns="http://www.w3.org/2000/svg"
 width="700.000000pt" height="610.000000pt" viewBox="0 0 700.000000 610.000000"
 preserveAspectRatio="xMidYMid meet">

<g transform="translate(0.000000,610.000000) scale(0.100000,-0.100000)"
fill="#000000" stroke="none">
<path d="M5446 6004 c-512 -43 -1068 -168 -1556 -351 -1568 -587 -2790 -1779
-3411 -3325 -57 -141 -169 -465 -169 -487 0 -7 21 -11 52 -11 44 0 65 8 149
55 178 102 338 142 524 131 190 -11 312 -53 668 -234 153 -78 264 -112 522
-162 274 -53 367 -95 410 -186 14 -31 15 -43 6 -75 -42 -140 -255 -155 -750
-53 -69 14 -177 41 -238 60 -123 37 -133 39 -133 24 0 -12 263 -145 316 -159
52 -14 264 -45 452 -67 161 -19 241 -14 397 21 341 78 639 130 755 130 121 0
159 -15 190 -75 43 -86 33 -138 -38 -201 -76 -67 -159 -100 -522 -204 -107
-31 -249 -72 -315 -92 -66 -19 -194 -56 -285 -83 -91 -26 -221 -65 -290 -85
-168 -51 -249 -65 -320 -55 -67 9 -69 10 -215 100 -820 502 -811 496 -874 510
-118 27 -252 -4 -538 -124 -97 -41 -112 -51 -117 -74 -18 -86 -37 -351 -43
-578 l-6 -261 84 -6 c46 -4 568 -9 1159 -12 591 -3 1316 -8 1610 -10 294 -2
1078 -7 1741 -11 l1206 -7 7 36 c8 43 5 1517 -3 1521 -3 1 -55 -1 -116 -5 -94
-6 -123 -12 -199 -43 -49 -20 -137 -48 -195 -63 -94 -24 -123 -27 -266 -27
-171 1 -238 11 -395 62 -167 53 -530 259 -530 299 0 10 18 72 38 138 l38 120
55 12 c30 6 77 12 106 12 l51 1 66 -79 c113 -135 241 -242 393 -327 72 -41
220 -97 234 -89 22 14 5 33 -58 64 -198 97 -316 188 -487 375 -100 108 -126
126 -186 126 -72 0 -235 -22 -247 -34 -10 -10 -57 -155 -170 -525 -62 -206
-66 -211 -156 -197 -50 8 -621 134 -977 216 -140 32 -399 91 -575 130 -267 59
-328 76 -367 101 -146 94 -239 282 -224 454 7 81 -1 52 189 675 80 261 207
678 282 925 122 402 166 547 237 777 11 37 29 75 39 84 21 19 -33 30 1019
-206 272 -61 666 -149 875 -196 209 -46 393 -89 408 -96 33 -13 47 -36 47 -75
0 -31 -10 -64 -173 -588 -134 -428 -243 -781 -263 -845 -7 -24 -11 -46 -9 -48
2 -3 49 10 103 27 71 23 107 40 128 62 18 18 25 33 18 37 -6 4 -27 17 -47 30
-47 30 -47 54 -4 177 26 73 36 91 54 93 54 8 231 -70 730 -321 286 -144 524
-259 528 -255 9 8 8 2013 -1 2831 l-7 607 -126 -1 c-69 -1 -198 -7 -285 -15z"/>
<path d="M2489 4618 c-23 -80 -54 -181 -285 -943 -86 -280 -191 -629 -235
-775 -44 -146 -94 -307 -110 -358 -16 -51 -29 -96 -29 -100 0 -4 42 -16 93
-26 156 -32 141 -34 155 21 7 26 42 140 77 253 35 113 141 453 235 755 94 303
216 693 271 868 55 176 98 321 96 324 -6 5 -214 53 -233 53 -8 0 -22 -30 -35
-72z"/>
<path d="M2860 4605 c0 -3 -24 -83 -54 -177 -30 -95 -104 -335 -166 -533 -61
-198 -126 -407 -145 -465 -18 -58 -75 -238 -125 -400 -51 -162 -118 -376 -149
-475 -32 -99 -55 -183 -52 -187 3 -4 179 -46 391 -93 746 -167 1365 -304 1400
-310 l35 -6 23 81 c13 45 21 84 18 87 -3 3 -76 -2 -161 -12 -182 -21 -272 -17
-332 14 -112 56 -135 212 -44 294 39 35 92 55 497 188 l222 73 45 145 c25 81
100 322 167 536 67 215 153 491 191 613 39 123 69 226 67 228 -4 3 -426 99
-968 219 -135 30 -375 84 -535 120 -278 62 -325 71 -325 60z"/>
<path d="M6192 4189 l3 -63 148 -121 148 -120 -148 -5 -148 -5 -3 -47 -3 -48
305 0 306 0 0 50 0 50 -88 0 c-84 0 -90 1 -116 29 l-27 28 116 93 115 93 0 65
c0 60 -1 63 -17 51 -10 -8 -75 -62 -145 -121 -70 -60 -132 -108 -137 -108 -5
0 -61 42 -123 93 -62 51 -130 106 -151 121 l-38 29 3 -64z"/>
<path d="M6374 3632 c-115 -40 -184 -132 -192 -258 -6 -88 14 -154 64 -213
122 -142 361 -144 484 -4 104 119 88 329 -32 424 -82 66 -219 87 -324 51z
m189 -93 c40 -11 100 -58 119 -93 33 -61 25 -156 -17 -212 -78 -103 -273 -101
-353 3 -33 45 -44 152 -19 199 48 91 159 134 270 103z"/>
<path d="M6383 2942 c-134 -48 -202 -141 -203 -279 0 -123 60 -219 170 -272
46 -22 69 -26 140 -26 106 0 170 26 234 95 102 109 100 303 -5 409 -78 79
-228 112 -336 73z m171 -93 c54 -13 114 -62 132 -105 17 -40 18 -122 3 -161
-51 -134 -274 -160 -372 -43 -31 36 -41 82 -35 151 7 74 51 125 134 154 48 17
82 18 138 4z"/>
<path d="M1807 2313 c-17 -16 -4 -32 36 -41 23 -6 123 -28 222 -50 99 -22 414
-93 700 -157 969 -217 1090 -243 1097 -239 5 3 8 16 8 28 0 28 31 19 -400 115
-173 38 -508 113 -745 166 -236 53 -520 116 -630 141 -189 42 -273 53 -288 37z"/>
<path d="M6554 2251 c-17 -10 -36 -33 -44 -50 l-13 -32 -18 29 c-27 45 -58 62
-114 62 -70 0 -114 -26 -145 -85 -22 -43 -25 -64 -28 -182 l-4 -133 307 0 307
0 -4 143 c-3 129 -6 146 -28 186 -14 25 -40 52 -60 63 -45 23 -116 23 -156 -1z
m122 -102 c15 -16 20 -40 23 -105 l3 -84 -81 0 -81 0 0 48 c1 63 14 119 36
143 23 26 76 25 100 -2z m-256 -14 c19 -20 24 -39 28 -100 l5 -75 -82 0 -81 0
0 65 c0 66 17 118 42 128 31 13 66 6 88 -18z"/>
<path d="M1820 2158 c0 -26 16 -36 75 -52 55 -14 972 -219 1640 -367 149 -33
278 -62 288 -65 13 -4 17 1 17 20 0 30 20 24 -345 105 -256 57 -794 177 -1390
311 -148 33 -273 60 -277 60 -5 0 -8 -6 -8 -12z"/>
<path d="M1940 1985 c0 -3 17 -16 38 -29 35 -24 349 -99 1072 -255 102 -22
307 -68 455 -101 317 -71 308 -70 313 -48 4 21 19 17 -388 107 -173 38 -425
95 -560 125 -731 164 -922 206 -926 206 -2 0 -4 -2 -4 -5z"/>
<path d="M6290 1738 c-33 -17 -51 -35 -69 -72 -22 -43 -26 -65 -29 -178 l-4
-128 306 0 306 0 0 50 0 50 -124 0 -123 0 -6 81 c-7 108 -36 165 -97 197 -24
12 -60 22 -80 22 -20 0 -56 -10 -80 -22z m127 -102 c25 -21 28 -31 31 -100 l4
-76 -82 0 -83 0 5 77 c5 68 8 79 32 100 34 29 58 29 93 -1z"/>
<path d="M6190 1135 l0 -115 45 0 c43 0 45 1 45 30 l0 30 215 0 215 0 0 -35
c0 -35 0 -35 45 -35 l45 0 0 120 0 120 -45 0 c-45 0 -45 0 -45 -35 l0 -35
-215 0 -215 0 0 35 c0 35 0 35 -45 35 l-45 0 0 -115z"/>
<path d="M6700 825 l0 -115 -255 0 -255 0 0 -50 0 -50 305 0 305 0 0 165 0
165 -50 0 -50 0 0 -115z"/>
<path d="M6190 310 l0 -200 305 0 305 0 0 50 0 50 -131 0 -130 0 2 123 1 122
-46 3 -46 3 0 -125 0 -126 -80 0 -80 0 0 150 0 150 -50 0 -50 0 0 -200z"/>
</g>
</svg>
